<?xml version="1.0" encoding="UTF-8"?>
<svg width="141px" height="131px" viewBox="0 0 141 131" version="1.1" xmlns="http://www.w3.org/2000/svg" xmlns:xlink="http://www.w3.org/1999/xlink">
    <!-- Generator: Sketch 46.2 (44496) - http://www.bohemiancoding.com/sketch -->
    <title>Group 3</title>
    <desc>Created with Sketch.</desc>
    <defs>
        <circle id="path-1" cx="60.7861328" cy="59.7861328" r="45.7861328"></circle>
        <filter x="-35.5%" y="-30.0%" width="171.0%" height="171.0%" filterUnits="objectBoundingBox" id="filter-2">
            <feOffset dx="0" dy="5" in="SourceAlpha" result="shadowOffsetOuter1"></feOffset>
            <feGaussianBlur stdDeviation="10" in="shadowOffsetOuter1" result="shadowBlurOuter1"></feGaussianBlur>
            <feColorMatrix values="0 0 0 0 0.0352941176   0 0 0 0 0.835294118   0 0 0 0 0.48627451  0 0 0 0.45 0" type="matrix" in="shadowBlurOuter1"></feColorMatrix>
        </filter>
    </defs>
    <g id="MVP" stroke="none" stroke-width="1" fill="none" fill-rule="evenodd">
        <g id="createNewAdConfirmation" transform="translate(-736.000000, -361.000000)">
            <g id="Group-2" transform="translate(741.000000, 362.000000)">
                <g id="Group-3">
                    <circle id="Oval-2" fill-opacity="0.2" fill="#09D57C" cx="103" cy="33" r="33"></circle>
                    <circle id="Oval-2" fill-opacity="0.2" fill="#09D57C" cx="33" cy="73" r="33"></circle>
                    <g id="Oval">
                        <use fill="black" fill-opacity="1" filter="url(#filter-2)" xlink:href="#path-1"></use>
                        <use fill="#09D57C" fill-rule="evenodd" xlink:href="#path-1"></use>
                    </g>
                    <g id="noun_747302_cc" transform="translate(36.000000, 42.000000)" fill-rule="nonzero" fill="#FFFFFF">
                        <path d="M13.956044,0.10989011 C16.7032967,-3.04062331e-14 19.0659341,0.989010989 20.8241758,2.85714286 L24.8901099,7.14285714 C23.7362637,8.46153846 22.8571429,9.3956044 22.5274725,9.83516484 C21.9230769,9.17582418 20.4395604,7.47252747 18.956044,5.87912088 C17.5824176,4.3956044 15.7142857,3.68131868 13.7362637,3.79120879 C11.8681319,3.9010989 10.1648352,4.78021978 9.28571429,5.98901099 C5.98901099,10.5494505 9.28571429,14.6153846 9.28571429,14.6703297 L24.8351648,32.6373626 C23.6813187,33.956044 22.8571429,34.9450549 22.4725275,35.3296703 C20.8791209,33.3516484 10.3846154,21.4285714 6.20879121,16.5934066 C5.21978022,15.4945055 3.13186813,11.5934066 4.83516484,6.75824176 C6.48351648,2.03296703 10.7692308,0.21978022 13.956044,0.10989011 Z" id="Shape"></path>
                        <path d="M23.0769231,16.3186813 C24.4505495,14.7252747 28.956044,9.45054945 31.7582418,6.37362637 C32.8571429,5.16483516 34.2857143,4.45054945 35.989011,4.3956044 C37.3076923,4.34065934 38.6813187,4.72527473 39.7252747,5.43956044 C36.5934066,5.65934066 35.0549451,7.52747253 35,7.58241758 L27.6373626,16.3186813 L23.0769231,16.3186813 Z" id="Shape"></path>
                        <path d="M3.07692308,19.4505495 C0.989010989,17.032967 0.164835165,13.7912088 0.714285714,10.1648352 C1.15384615,7.03296703 3.73626374,4.06593407 6.64835165,2.74725275 C5.65934066,3.79120879 4.83516484,5.05494505 4.28571429,6.59340659 C2.47252747,11.5934066 4.72527473,15.8241758 5.76923077,16.978022 C10.2747253,22.1978022 22.1428571,35.8241758 22.2527473,35.9340659 L22.5274725,36.2637363 L22.7472527,36.043956 C22.9120879,35.8791209 37.4725275,19.0659341 40.7142857,15.4395604 C43.4615385,12.3076923 43.0769231,7.63736264 40.8241758,5.54945055 C39.6153846,4.3956044 37.8021978,3.73626374 36.043956,3.9010989 C34.2307692,3.95604396 32.6373626,4.78021978 31.4285714,6.04395604 C28.5164835,9.23076923 23.6263736,14.8901099 22.5274725,16.1538462 C21.5384615,14.9450549 17.1978022,9.67032967 14.9450549,7.1978022 C14.2307692,6.42857143 13.021978,5.6043956 10.7692308,5.38461538 C11.5934066,4.78021978 12.6923077,4.45054945 13.7912088,4.34065934 C15.0549451,4.28571429 16.9230769,4.50549451 18.5164835,6.26373626 C20.3846154,8.24175824 22.2527473,10.4395604 22.2527473,10.4395604 L22.4725275,10.6593407 L22.6923077,10.4395604 C22.6923077,10.4395604 25,7.8021978 28.1868132,4.17582418 C30.9340659,1.0989011 34.2307692,0 36.4835165,0 C38.7362637,0 43.4615385,1.37362637 45.4945055,6.64835165 C46.7032967,9.83516484 46.1538462,14.0659341 44.1758242,16.3186813 C38.5714286,22.8571429 24.1758242,39.2857143 22.3076923,41.4835165 C20.3846154,39.2857143 5.27472527,21.9230769 3.07692308,19.4505495 Z" id="Shape"></path>
                        <path d="M47.967033,18.4615385 C43.5714286,23.4065934 29.1758242,40.3296703 27.9120879,41.7582418 L23.021978,41.7582418 C25.5494505,38.7912088 39.2857143,23.1318681 44.7252747,16.8131868 C46.8681319,14.3956044 47.4175824,10 46.0989011,6.59340659 C45.4395604,5 44.6153846,3.68131868 43.6263736,2.74725275 C46.043956,3.79120879 47.9120879,5.49450549 49.010989,7.91208791 L49.0659341,8.02197802 C49.010989,7.96703297 51.8131868,14.010989 47.967033,18.4615385 Z" id="Shape"></path>
                    </g>
                </g>
            </g>
        </g>
    </g>
</svg>