<?xml version="1.0" encoding="UTF-8"?>
<svg width="23px" height="27px" viewBox="0 0 23 27" version="1.1" xmlns="http://www.w3.org/2000/svg" xmlns:xlink="http://www.w3.org/1999/xlink">
    <!-- Generator: Sketch 46.2 (44496) - http://www.bohemiancoding.com/sketch -->
    <title>Page 1</title>
    <desc>Created with Sketch.</desc>
    <defs></defs>
    <g id="MVP" stroke="none" stroke-width="1" fill="none" fill-rule="evenodd">
        <g id="linkStatus2" transform="translate(-899.000000, -638.000000)" fill="#1B2437">
            <g id="Group-6" transform="translate(655.000000, 631.000000)">
                <path d="M255.452,6.9992 L244,15.8152 L244,24.4682 L255.452,33.2842 L266.904,24.4682 L266.904,15.8152 L255.452,6.9992 Z M259.874,18.1372 L256.224,15.3282 L256.224,9.7032 L264.761,16.2742 L261.261,18.9702 L258.965,20.7392 L258.963,20.7372 L255.452,23.4412 L252.4,21.0922 L251.031,22.1462 L254.679,24.9562 L254.679,30.5812 L246.142,24.0092 L249.796,21.1962 L251.941,19.5442 L251.941,19.5452 L255.452,16.8422 L258.504,19.1912 L259.874,18.1372 Z M248.562,18.1372 L246.142,16.2742 L254.679,9.7032 L254.679,15.3282 L249.796,19.0872 L248.427,20.1412 L248.381,20.1772 L247.652,20.7382 L245.546,22.3592 L245.546,17.9232 L247.193,19.1902 L248.562,18.1372 Z M256.224,24.9562 L261.108,21.1962 L263.081,19.6762 L265.358,17.9232 L265.358,22.3592 L263.711,21.0922 L262.342,22.1462 L264.761,24.0092 L256.224,30.5812 L256.224,24.9562 Z" id="Page-1"></path>
            </g>
        </g>
    </g>
</svg>