<?xml version="1.0" encoding="UTF-8"?>
<svg width="22px" height="19px" viewBox="0 0 22 19" version="1.1" xmlns="http://www.w3.org/2000/svg" xmlns:xlink="http://www.w3.org/1999/xlink">
    <!-- Generator: Sketch 48.2 (47327) - http://www.bohemiancoding.com/sketch -->
    <title>ERC20</title>
    <desc>Created with Sketch.</desc>
    <defs></defs>
    <g id="kek" stroke="none" stroke-width="1" fill="none" fill-rule="evenodd" transform="translate(-984.000000, -286.000000)">
        <g id="ERC20" transform="translate(984.000000, 286.000000)" fill="#060310">
            <path d="M6.0945,6.537 L6.0945,8 L0.2975,8 L0.2975,0.74 L5.9515,0.74 L5.9515,2.203 L2.1895,2.203 L2.1895,3.677 L5.1815,3.677 L5.1815,5.052 L2.1895,5.052 L2.1895,6.537 L6.0945,6.537 Z M10.2305,5.349 L9.0975,5.349 L9.0975,8 L7.2385,8 L7.2385,0.74 L10.7035,0.74 C11.5835044,0.74 12.2599976,0.93799802 12.733,1.334 C13.2060024,1.73000198 13.4425,2.30199626 13.4425,3.05 C13.4425,3.57800264 13.3215012,4.01799824 13.0795,4.37 C12.8374988,4.72200176 12.4855023,4.98233249 12.0235,5.151 L13.8715,8 L11.7815,8 L10.2305,5.349 Z M9.0975,4.007 L10.3845,4.007 C10.7878354,4.007 11.0811658,3.9336674 11.2645,3.787 C11.4478343,3.6403326 11.5395,3.40566828 11.5395,3.083 C11.5395,2.76766509 11.4478343,2.5366674 11.2645,2.39 C11.0811658,2.2433326 10.7878354,2.17 10.3845,2.17 L9.0975,2.17 L9.0975,4.007 Z M20.1085,7.5655 C19.5511639,7.92850181 18.8728373,8.11 18.0735,8.11 C17.340163,8.11 16.705836,7.96150148 16.1705,7.6645 C15.635164,7.36749851 15.2245014,6.9385028 14.9385,6.3775 C14.6524986,5.81649719 14.5095,5.14733722 14.5095,4.37 C14.5095,3.59999615 14.6524986,2.93266949 14.9385,2.368 C15.2245014,1.80333051 15.635164,1.37250148 16.1705,1.0755 C16.705836,0.778498515 17.3364964,0.63 18.0625,0.63 C18.854504,0.63 19.5254973,0.796831665 20.0755,1.1305 C20.6255028,1.46416833 20.9884991,1.96466333 21.1645,2.632 L19.5035,3.303 C19.4008328,2.8629978 19.2431677,2.55500088 19.0305,2.379 C18.8178323,2.20299912 18.5171686,2.115 18.1285,2.115 C17.593164,2.115 17.1788348,2.30749807 16.8855,2.6925 C16.5921652,3.07750192 16.4455,3.636663 16.4455,4.37 C16.4455,5.103337 16.5866653,5.66249807 16.869,6.0475 C17.1513347,6.43250192 17.560164,6.625 18.0955,6.625 C18.4988354,6.625 18.8178322,6.52966762 19.0525,6.339 C19.2871678,6.14833238 19.4484996,5.84766872 19.5365,5.437 L21.2525,5.921 C21.0471656,6.654337 20.6658361,7.20249818 20.1085,7.5655 Z" id="ERC"></path>
            <path d="M3.84,16.79 C5.06467279,16.0273295 5.95016394,15.3508363 6.4965,14.7605 C7.04283607,14.1701637 7.316,13.6146693 7.316,13.094 C7.316,12.8006652 7.23166751,12.5641676 7.063,12.3845 C6.89433249,12.2048324 6.65233491,12.115 6.337,12.115 C5.99233161,12.115 5.72283431,12.2414987 5.5285,12.4945 C5.3341657,12.7475013 5.23333337,13.1159976 5.226,13.6 L3.609,13.105 C3.62366674,12.3203294 3.89316405,11.7116688 4.4175,11.279 C4.94183596,10.8463312 5.62199582,10.63 6.458,10.63 C7.06666971,10.63 7.57633128,10.7418322 7.987,10.9655 C8.39766872,11.1891678 8.70199901,11.4769982 8.9,11.829 C9.09800099,12.1810018 9.197,12.5586646 9.197,12.962 C9.197,13.6440034 8.94216922,14.2709971 8.4325,14.843 C7.92283079,15.4150029 7.15100517,15.997997 6.117,16.592 L6.117,16.603 C6.60100242,16.5736665 7.08866421,16.559 7.58,16.559 L9.285,16.559 L9.285,18 L3.84,18 L3.84,16.79 Z M10.264,14.37 C10.264,11.8766542 11.2686566,10.63 13.278,10.63 C15.2873434,10.63 16.292,11.8766542 16.292,14.37 C16.292,16.8633458 15.2873434,18.11 13.278,18.11 C11.2686566,18.11 10.264,16.8633458 10.264,14.37 Z M14.1525,16.108 C14.3321676,15.7559982 14.422,15.1766707 14.422,14.37 C14.422,13.5633293 14.3321676,12.9840018 14.1525,12.632 C13.9728324,12.2799982 13.6813354,12.104 13.278,12.104 C12.8746647,12.104 12.5831676,12.2799982 12.4035,12.632 C12.2238324,12.9840018 12.134,13.5633293 12.134,14.37 C12.134,15.1766707 12.2238324,15.7559982 12.4035,16.108 C12.5831676,16.4600018 12.8746647,16.636 13.278,16.636 C13.6813354,16.636 13.9728324,16.4600018 14.1525,16.108 Z" id="20"></path>
        </g>
    </g>
</svg>